<svg xmlns="http://www.w3.org/2000/svg" width="131.343" height="131.343" viewBox="0 0 131.343 131.343">
  <g id="Group_1441" data-name="Group 1441" transform="translate(0.5 0.5)">
    <path id="Path_17676" data-name="Path 17676" d="M65.671,40.813a61.122,61.122,0,1,0,61.121,61.121A61.191,61.191,0,0,0,65.671,40.813m0,126.293a65.171,65.171,0,1,1,65.171-65.171,65.245,65.245,0,0,1-65.171,65.171" transform="translate(-0.5 -36.763)" fill="#0071ba"/>
    <path id="Path_17677" data-name="Path 17677" d="M65.671,40.813a61.122,61.122,0,1,0,61.121,61.121A61.191,61.191,0,0,0,65.671,40.813m0,126.293a65.171,65.171,0,1,1,65.171-65.171,65.245,65.245,0,0,1-65.171,65.171" transform="translate(-0.5 -36.763)" fill="none" stroke="#0071ba" stroke-width="1"/>
    <path id="Path_17678" data-name="Path 17678" d="M46.446,111.084V67.79h6.2v37.093H64.932v6.2Z" transform="translate(18.007 -24.265)" fill="#0071ba"/>
    <path id="Path_17679" data-name="Path 17679" d="M64.6,111.084V67.79H83.086v5.837H70.8V86.336H81.5v5.837H70.8v12.709H83.086v6.2Z" transform="translate(25.319 -24.265)" fill="#0071ba"/>
    <path id="Path_17680" data-name="Path 17680" d="M29.567,84.793V66.815L51.672,80.773l-14.2,9.055,14.2,9.054L29.56,112.845V94.87l-11.626,7.4-1.793-2.81c.317-.21.61-.412.91-.6,3.977-2.535,7.95-5.077,11.939-7.592a1.237,1.237,0,0,0,.593-1.052,2.082,2.082,0,0,0-1.258-2.271c-3.946-2.434-7.836-4.957-11.746-7.449-.133-.086-.261-.181-.442-.307.6-.938,1.185-1.862,1.79-2.808l11.639,7.412M32.9,72.881v.769c0,4.135.017,8.272-.017,12.408-.006.642.137,1.079.741,1.323a.873.873,0,0,1,.254.16c.318.29.593.24.952.008,3.357-2.16,6.728-4.3,10.093-6.444.143-.091.275-.2.467-.338L32.9,72.881m0,33.895c4.236-2.675,8.342-5.269,12.507-7.9-.262-.175-.44-.3-.624-.415q-4.92-3.135-9.846-6.264c-.24-.153-.478-.539-.83-.219-.446.408-1.234.421-1.225,1.352.042,4.234.018,8.469.018,12.7Z" transform="translate(5.799 -24.658)" fill="#0071ba"/>
    <path id="Path_17681" data-name="Path 17681" d="M29.567,84.793V66.815L51.672,80.773l-14.2,9.055,14.2,9.054L29.56,112.845V94.87l-11.626,7.4-1.793-2.81c.317-.21.61-.412.91-.6,3.977-2.535,7.95-5.077,11.939-7.592a1.237,1.237,0,0,0,.593-1.052,2.082,2.082,0,0,0-1.258-2.271c-3.946-2.434-7.836-4.957-11.746-7.449-.133-.086-.261-.181-.442-.307.6-.938,1.185-1.862,1.79-2.808ZM32.9,72.881v.769c0,4.135.017,8.272-.017,12.408-.006.642.137,1.079.741,1.323a.873.873,0,0,1,.254.16c.318.29.593.24.952.008,3.357-2.16,6.728-4.3,10.093-6.444.143-.091.275-.2.467-.338Zm0,33.895c4.236-2.675,8.342-5.269,12.507-7.9-.262-.175-.44-.3-.624-.415q-4.92-3.135-9.846-6.264c-.24-.153-.478-.539-.83-.219-.446.408-1.234.421-1.225,1.352.042,4.234.018,8.469.018,12.7Z" transform="translate(5.799 -24.658)" fill="none" stroke="#0071ba" stroke-width="2.207"/>
  </g>
</svg>
