<svg xmlns="http://www.w3.org/2000/svg" width="22" height="19.056" viewBox="0 0 22 19.056">
  <path id="readiness_score_FILL0_wght300_GRAD-25_opsz20" d="M128.745-769.673a3.766,3.766,0,0,1-1.682-.373,5.075,5.075,0,0,1-1.481-1.164,8.731,8.731,0,0,1-1.843-3.044,10.678,10.678,0,0,1-.662-3.713,10.136,10.136,0,0,1,.871-4.172,11,11,0,0,1,2.378-3.426,11.227,11.227,0,0,1,3.508-2.318,10.821,10.821,0,0,1,4.258-.846,10.8,10.8,0,0,1,4.277.847,11.188,11.188,0,0,1,3.495,2.328,10.793,10.793,0,0,1,2.36,3.461,10.531,10.531,0,0,1,.853,4.214,10.257,10.257,0,0,1-.661,3.663,8.886,8.886,0,0,1-1.84,2.995,5.16,5.16,0,0,1-1.523,1.172,3.733,3.733,0,0,1-1.636.377,3.818,3.818,0,0,1-.91-.113,4.983,4.983,0,0,1-.9-.315l-1.744-.854a5.2,5.2,0,0,0-.84-.3,3.39,3.39,0,0,0-.849-.1,4.406,4.406,0,0,0-1.064.134,5,5,0,0,0-1.055.395l-1.475.731a6.514,6.514,0,0,1-.89.306,3.658,3.658,0,0,1-.945.122Zm.006-1.449a2.183,2.183,0,0,0,.586-.077,3.463,3.463,0,0,0,.577-.222l1.455-.756a4.938,4.938,0,0,1,1.321-.494,6.663,6.663,0,0,1,1.433-.154,5.441,5.441,0,0,1,1.256.139,5.324,5.324,0,0,1,1.145.417l1.706.849a5.531,5.531,0,0,0,.581.221,1.866,1.866,0,0,0,.55.078,2.594,2.594,0,0,0,1.059-.236,3.855,3.855,0,0,0,1.063-.736,5.941,5.941,0,0,0,1.582-2.363,8.836,8.836,0,0,0,.532-3.131,9.407,9.407,0,0,0-2.755-6.859,9.1,9.1,0,0,0-6.749-2.8,9.192,9.192,0,0,0-6.753,2.784,9.212,9.212,0,0,0-2.782,6.765,8.708,8.708,0,0,0,.549,3.138,6.68,6.68,0,0,0,1.543,2.413,4.042,4.042,0,0,0,1.046.776A2.383,2.383,0,0,0,128.752-771.122ZM134.093-779.2Zm0,2.959a1.8,1.8,0,0,0,1.317-.533,1.778,1.778,0,0,0,.536-1.313,2.088,2.088,0,0,0-.064-.513,1.582,1.582,0,0,0-.211-.479l2.054-2.594a5.517,5.517,0,0,1,.822.956,2.307,2.307,0,0,1,.394,1.179.473.473,0,0,0,.223.442.912.912,0,0,0,.52.16.65.65,0,0,0,.558-.294.745.745,0,0,0,.107-.657,6.582,6.582,0,0,0-2.324-3.455,6.216,6.216,0,0,0-3.935-1.342,6.339,6.339,0,0,0-3.977,1.354,6.414,6.414,0,0,0-2.332,3.474.679.679,0,0,0,.126.642.7.7,0,0,0,.571.278.854.854,0,0,0,.5-.16.514.514,0,0,0,.228-.442,4.114,4.114,0,0,1,1.734-2.678,5.352,5.352,0,0,1,3.149-.988,4.777,4.777,0,0,1,1.252.166,5.117,5.117,0,0,1,1.176.483l-2.1,2.647a.651.651,0,0,0-.16-.035h-.166a1.782,1.782,0,0,0-1.314.535,1.8,1.8,0,0,0-.533,1.318,1.787,1.787,0,0,0,.534,1.316A1.788,1.788,0,0,0,134.094-776.242Z" transform="translate(-123.078 788.729)" fill="#fff" opacity="0.6"/>
</svg>
