<svg id="Group_1269" data-name="Group 1269" xmlns="http://www.w3.org/2000/svg" xmlns:xlink="http://www.w3.org/1999/xlink" width="18" height="17.723" viewBox="0 0 18 17.723">
  <defs>
    <clipPath id="clip-path">
      <rect id="Rectangle_1195" data-name="Rectangle 1195" width="18" height="17.723" fill="none"/>
    </clipPath>
  </defs>
  <g id="Group_1268" data-name="Group 1268" clip-path="url(#clip-path)">
    <path id="Path_17705" data-name="Path 17705" d="M6.9,13.516A6.882,6.882,0,0,1,.16,8.16,6.766,6.766,0,0,1,5.355.141,7.046,7.046,0,0,1,13.295,4.37a6.73,6.73,0,0,1-4.578,8.9c-.589.152-1.2.2-1.806.3l-.01-.06M6.894,12c.254-.022.51-.035.763-.067a5.2,5.2,0,0,0,4.3-6.714,5.451,5.451,0,0,0-6.341-3.56A5.219,5.219,0,0,0,1.6,7.456,5.359,5.359,0,0,0,6.894,12" transform="translate(0 0)" fill="#fff"/>
    <path id="Path_17706" data-name="Path 17706" d="M46.471,44.328l.524.586.124-.1a.642.642,0,0,1,.985.026q1.211,1.188,2.418,2.38c.213.21.429.417.639.63a1.719,1.719,0,0,1,.051,2.454,1.768,1.768,0,0,1-2.486.035c-.865-.827-1.71-1.675-2.563-2.513l-.531-.522a.625.625,0,0,1-.017-1.006c.019-.021.037-.044.076-.088l-.562-.5,1.344-1.373" transform="translate(-33.701 -33.105)" fill="#fff"/>
    <path id="Path_17707" data-name="Path 17707" d="M14.5,16.073c-.167.332-.322.635-.471.941a.55.55,0,0,1-.547.361.543.543,0,0,1-.492-.458q-.313-1.07-.623-2.142a.488.488,0,0,0-.113-.217c-.092.43-.186.86-.277,1.29q-.313,1.488-.624,2.976a.538.538,0,0,1-.521.5.525.525,0,0,1-.54-.448c-.25-.853-.5-1.708-.761-2.623-.153.325-.28.606-.416.883a1.305,1.305,0,0,1-.2.333c-.225.234-.468.19-.577-.107-.134-.367-.242-.743-.361-1.114l.059-.033.283.137c.062-.126.124-.247.182-.37.222-.468.44-.937.664-1.4a.531.531,0,0,1,.537-.336.539.539,0,0,1,.474.424c.179.622.359,1.244.58,1.87.069-.317.138-.634.206-.951q.351-1.658.7-3.317c.07-.33.241-.494.515-.5s.453.14.548.466q.436,1.49.869,2.981c.014.049.031.1.061.188.119-.232.228-.43.322-.635a.572.572,0,0,1,.521-.4.585.585,0,0,1,.541.408c.224.459.456.913.686,1.369.032.063.068.123.116.21.174-.341.33-.653.49-.962a.537.537,0,0,1,.865-.237c.521.33.524.33.472.943-.015.18-.053.358-.085.565l-.54-.349L16.5,17.386c-.063.124-.123.248-.188.371a.53.53,0,0,1-.95-.006c-.248-.487-.491-.977-.738-1.466-.032-.063-.068-.123-.118-.212" transform="translate(-5.958 -8.786)" fill="#fff"/>
  </g>
</svg>
