<svg id="Group_1420" data-name="Group 1420" xmlns="http://www.w3.org/2000/svg" xmlns:xlink="http://www.w3.org/1999/xlink" width="28.31" height="24.984" viewBox="0 0 28.31 24.984">
  <defs>
    <clipPath id="clip-path">
      <rect id="Rectangle_1192" data-name="Rectangle 1192" width="28.31" height="24.984" fill="none"/>
    </clipPath>
  </defs>
  <g id="Group_1252" data-name="Group 1252" clip-path="url(#clip-path)">
    <path id="Path_17696" data-name="Path 17696" d="M14.2,24.983H1.808c-.133,0-.266,0-.4,0A1.4,1.4,0,0,1,.052,23.171a3.157,3.157,0,0,1,.34-.822Q6.554,11.694,12.73,1.046c.05-.086.1-.171.158-.253a1.511,1.511,0,0,1,2.657,0c.3.439.545.91.811,1.37q5.748,9.9,11.5,19.8a2.874,2.874,0,0,1,.456,1.569,1.383,1.383,0,0,1-1.495,1.458q-6.309,0-12.619,0m1.079-7.56c.245-3.4.489-6.776.733-10.166h-3.7l.734,10.166ZM14.121,22.47a1.9,1.9,0,1,0-1.888-1.926,1.87,1.87,0,0,0,1.888,1.926" transform="translate(0 0)" fill="#e98800"/>
  </g>
</svg>
