<svg xmlns="http://www.w3.org/2000/svg" xmlns:xlink="http://www.w3.org/1999/xlink" width="118.553" height="30.295" viewBox="0 0 118.553 30.295">
  <defs>
    <clipPath id="clip-path">
      <rect id="Rectangle_1188" data-name="Rectangle 1188" width="118.553" height="30.295" transform="translate(0 0)" fill="none"/>
    </clipPath>
  </defs>
  <g id="Group_1375" data-name="Group 1375" transform="translate(0 0)">
    <g id="Group_1242" data-name="Group 1242" clip-path="url(#clip-path)">
      <path id="Path_17683" data-name="Path 17683" d="M80.888,10.262h.183c.151,0,.226-.046.226-.142a.115.115,0,0,0-.055-.1.378.378,0,0,0-.184-.033h-.17Zm-.15.527V9.856h.32a.566.566,0,0,1,.307.062.215.215,0,0,1,.091.191.246.246,0,0,1-.072.176.3.3,0,0,1-.194.087c.055.017.128.094.217.234l.115.183h-.185l-.081-.148a.9.9,0,0,0-.14-.2.2.2,0,0,0-.14-.047h-.088v.4Zm.38-1.2A.694.694,0,0,0,80.6,9.8a.725.725,0,0,0,0,1.023.691.691,0,0,0,.512.214.761.761,0,0,0,.355-.094.637.637,0,0,0,.273-.273.777.777,0,0,0,.094-.356.724.724,0,0,0-.722-.725m0-.143a.883.883,0,0,1,.425.112.792.792,0,0,1,.324.32.878.878,0,0,1,.117.436.827.827,0,0,1-.255.614.837.837,0,0,1-.611.252.874.874,0,0,1-.43-.114.774.774,0,0,1-.324-.322.893.893,0,0,1-.114-.43.836.836,0,0,1,.141-.475.8.8,0,0,1,.342-.3.951.951,0,0,1,.385-.09" fill="#fff"/>
      <path id="Path_17684" data-name="Path 17684" d="M79.841,12.976,75.456,24.084l-.866,2.2c-.61,1.542-1.465,2.31-2.577,2.31a5.94,5.94,0,0,1-1.246-.207l-.142-1.313a5.412,5.412,0,0,0,1.171.186,1.384,1.384,0,0,0,.914-.246,2.711,2.711,0,0,0,.572-.975l.774-1.955L69.683,12.976H71.1l3.65,9.6,3.791-9.6ZM65.693,18.833v-.719a20.32,20.32,0,0,1-3.508.838,10.325,10.325,0,0,0-1.857.458,1.9,1.9,0,0,0-.512,3.2,2.651,2.651,0,0,0,1.737.555,4.8,4.8,0,0,0,1.232-.162,5.448,5.448,0,0,0,1.187-.491,3.429,3.429,0,0,0,.975-.78,2.956,2.956,0,0,0,.566-1.175,7.161,7.161,0,0,0,.18-1.727m1.956,5.251H66.228a6.187,6.187,0,0,1-.4-1.694,5.933,5.933,0,0,1-4.543,1.939,4.417,4.417,0,0,1-1.781-.343,2.826,2.826,0,0,1-1.727-2.735,3.376,3.376,0,0,1,.219-1.259,2.7,2.7,0,0,1,.663-.969,3.679,3.679,0,0,1,1.209-.719,13.22,13.22,0,0,1,2.726-.572,15.879,15.879,0,0,0,3.1-.648c0-.632-.016-1.117-.048-1.46a2.107,2.107,0,0,0-.355-.959,1.941,1.941,0,0,0-.936-.681,4.319,4.319,0,0,0-1.553-.239c-1.924,0-3.078.817-3.465,2.462l-1.322-.2q.611-3.285,4.777-3.279a7.115,7.115,0,0,1,2.2.294,2.761,2.761,0,0,1,1.322.85,2.856,2.856,0,0,1,.567,1.35,14.644,14.644,0,0,1,.13,2.218l-.037,3.126a9.992,9.992,0,0,0,.115,1.923,6.785,6.785,0,0,0,.56,1.591M56.48,13.4l-.5,1.121a4.39,4.39,0,0,0-1.492-.424,1.987,1.987,0,0,0-.715.125,1.83,1.83,0,0,0-.614.4,2.653,2.653,0,0,0-.491.628,2.744,2.744,0,0,0-.31.8,10.376,10.376,0,0,0-.2,1.285c-.054.566-.087,1.078-.087,1.536v5.219h-1.3V12.976h1.149v2.25c.55-1.666,1.416-2.494,2.593-2.494a3.7,3.7,0,0,1,1.966.67M46.036,17.618q-.3-3.84-3.475-3.846a3.26,3.26,0,0,0-2.43,1,4.59,4.59,0,0,0-1.187,2.843ZM47.453,18.7H38.906a5.34,5.34,0,0,0,1.013,3.367,3.333,3.333,0,0,0,2.729,1.209q2.427,0,3.388-2.7l1.28.218a5.312,5.312,0,0,1-1.835,2.724,4.991,4.991,0,0,1-2.914.817,4.6,4.6,0,0,1-3.688-1.552,6.326,6.326,0,0,1-1.329-4.25,6.291,6.291,0,0,1,1.339-4.243,4.629,4.629,0,0,1,3.7-1.552q4.821,0,4.865,5.964M36.24,13.4l-.5,1.121a4.39,4.39,0,0,0-1.492-.424,1.968,1.968,0,0,0-.713.125,1.809,1.809,0,0,0-.616.4,2.653,2.653,0,0,0-.491.628,2.744,2.744,0,0,0-.31.8,10.376,10.376,0,0,0-.2,1.285c-.054.566-.087,1.078-.087,1.536v5.219h-1.3V12.976h1.149v2.25c.55-1.666,1.416-2.494,2.593-2.494a3.707,3.707,0,0,1,1.966.67m-11.07-.424h1.308V24.085H25.17Zm0-4.223h1.308V10.71H25.17Zm-2.523,0-.218,1.051A8.894,8.894,0,0,0,21.345,9.7a2.235,2.235,0,0,0-.932.169,1.185,1.185,0,0,0-.576.578,3.966,3.966,0,0,0-.208,1.569v.963H21.95v.992H19.629V24.084h-1.3V13.968h-1.77v-.992h1.77V11.822A5.617,5.617,0,0,1,18.562,10a2.066,2.066,0,0,1,.877-1.084,2.877,2.877,0,0,1,1.6-.42,7.14,7.14,0,0,1,1.606.262" fill="#fff"/>
      <path id="Path_17685" data-name="Path 17685" d="M1.057,0C17.175,14.021-2.034,20.673,6.171,30.3-8.9,20.273,9.465,12.375,1.057,0" fill="#fff"/>
      <path id="Path_17686" data-name="Path 17686" d="M8.26,8.453c2.9,7.812,4.128,14.3-1.6,21.842,12.3-7.693,3.621-17.081,1.6-21.842" fill="#fff"/>
      <path id="Path_17687" data-name="Path 17687" d="M102.4,25.1V9.195h2.279V22.824H109.2V25.1Z" fill="#fff"/>
      <path id="Path_17688" data-name="Path 17688" d="M111.761,25.1V9.195h6.792V11.34H114.04v4.67h3.933v2.144H114.04v4.67h4.513V25.1Z" fill="#fff"/>
      <path id="Path_17689" data-name="Path 17689" d="M91.716,15.3V8.692l8.122,5.129L94.62,17.148l5.218,3.327L91.713,25.6V19l-4.272,2.721-.658-1.032c.116-.078.224-.152.334-.222,1.461-.932,2.921-1.866,4.387-2.79a.452.452,0,0,0,.218-.386.765.765,0,0,0-.462-.835c-1.45-.894-2.879-1.821-4.316-2.737-.049-.031-.1-.066-.162-.113l.657-1.032L91.716,15.3m1.223-4.377V11.2c0,1.52.006,3.04-.006,4.56,0,.236.05.4.272.486a.3.3,0,0,1,.093.058c.117.107.218.089.35,0,1.234-.794,2.472-1.58,3.709-2.369.052-.033.1-.072.171-.124l-4.589-2.9m0,12.454,4.6-2.9c-.1-.064-.162-.11-.23-.153q-1.808-1.152-3.617-2.3c-.089-.056-.176-.2-.306-.08-.164.15-.453.154-.45.5.016,1.555.007,3.111.007,4.667Z" fill="#fff"/>
      <path id="Path_17690" data-name="Path 17690" d="M91.716,15.3V8.692l8.122,5.129L94.62,17.148l5.218,3.327L91.713,25.6V19l-4.272,2.721-.658-1.032c.116-.078.224-.152.334-.222,1.461-.932,2.921-1.866,4.387-2.79a.452.452,0,0,0,.218-.386.765.765,0,0,0-.462-.835c-1.45-.894-2.879-1.821-4.316-2.737-.049-.031-.1-.066-.162-.113l.657-1.032Zm1.223-4.377V11.2c0,1.52.006,3.04-.006,4.56,0,.236.05.4.272.486a.3.3,0,0,1,.093.058c.117.107.218.089.35,0,1.234-.794,2.472-1.58,3.709-2.369.052-.033.1-.072.171-.124Zm0,12.454,4.6-2.9c-.1-.064-.162-.11-.23-.153q-1.808-1.152-3.617-2.3c-.089-.056-.176-.2-.306-.08-.164.15-.453.154-.45.5.016,1.555.007,3.111.007,4.667Z" fill="none" stroke="#fff" stroke-width="1.137"/>
    </g>
  </g>
</svg>
