<svg id="Group_1440" data-name="Group 1440" xmlns="http://www.w3.org/2000/svg" width="167.771" height="61.995" viewBox="0 0 167.771 61.995">
  <path id="Path_17672" data-name="Path 17672" d="M87.522,11.122H87.9c.309,0,.462-.1.462-.293a.231.231,0,0,0-.113-.213.747.747,0,0,0-.377-.07h-.348ZM87.215,12.2V10.289h.655a1.156,1.156,0,0,1,.628.129.438.438,0,0,1,.186.391.5.5,0,0,1-.147.358.585.585,0,0,1-.4.178c.113.037.262.192.444.479l.235.374H88.44l-.166-.3a1.917,1.917,0,0,0-.286-.413.41.41,0,0,0-.286-.094h-.18V12.2Zm.778-2.462a1.42,1.42,0,0,0-1.052.432,1.485,1.485,0,0,0,0,2.093,1.414,1.414,0,0,0,1.048.438,1.535,1.535,0,0,0,.726-.194,1.3,1.3,0,0,0,.559-.557,1.6,1.6,0,0,0,.192-.729,1.481,1.481,0,0,0-1.477-1.484m0-.295a1.787,1.787,0,0,1,.87.231,1.621,1.621,0,0,1,.663.655,1.8,1.8,0,0,1,.239.892,1.689,1.689,0,0,1-.522,1.254,1.714,1.714,0,0,1-1.25.516,1.785,1.785,0,0,1-.88-.231,1.584,1.584,0,0,1-.663-.659,1.827,1.827,0,0,1-.233-.88,1.707,1.707,0,0,1,.289-.972,1.611,1.611,0,0,1,.7-.62,1.951,1.951,0,0,1,.788-.186" transform="translate(78.006 9.88)" fill="#fff"/>
  <path id="Path_17673" data-name="Path 17673" d="M152.026,17.667,143.053,40.4l-1.772,4.5c-1.248,3.156-3,4.727-5.274,4.727a12.135,12.135,0,0,1-2.55-.424l-.291-2.687a11.056,11.056,0,0,0,2.4.381,2.836,2.836,0,0,0,1.87-.5,5.549,5.549,0,0,0,1.171-2l1.584-4-8.949-22.731h2.908l7.469,19.643,7.758-19.643ZM123.074,29.653V28.181A41.581,41.581,0,0,1,115.9,29.9a21.13,21.13,0,0,0-3.8.937,3.88,3.88,0,0,0-1.048,6.555,5.421,5.421,0,0,0,3.555,1.136,9.791,9.791,0,0,0,2.519-.332,11.122,11.122,0,0,0,2.431-1,7.045,7.045,0,0,0,2-1.6,6.049,6.049,0,0,0,1.158-2.4,14.654,14.654,0,0,0,.368-3.534m4,10.746h-2.91a12.659,12.659,0,0,1-.825-3.467,12.142,12.142,0,0,1-9.3,3.968,9.032,9.032,0,0,1-3.645-.7,5.774,5.774,0,0,1-3.534-5.6,6.95,6.95,0,0,1,.446-2.576,5.524,5.524,0,0,1,1.359-1.983,7.527,7.527,0,0,1,2.474-1.471,27.025,27.025,0,0,1,5.576-1.171,32.524,32.524,0,0,0,6.352-1.326c0-1.293-.033-2.286-.1-2.988a4.308,4.308,0,0,0-.724-1.962,3.967,3.967,0,0,0-1.917-1.394,8.826,8.826,0,0,0-3.176-.489c-3.937,0-6.3,1.672-7.091,5.038l-2.707-.4q1.252-6.722,9.776-6.71a14.542,14.542,0,0,1,4.5.6,5.647,5.647,0,0,1,2.707,1.739,5.843,5.843,0,0,1,1.158,2.763,29.656,29.656,0,0,1,.268,4.539l-.076,6.4a20.481,20.481,0,0,0,.233,3.935,14,14,0,0,0,1.148,3.256M104.221,18.539,103.2,20.833a8.984,8.984,0,0,0-3.053-.868,4.066,4.066,0,0,0-1.463.256,3.726,3.726,0,0,0-1.256.812,5.429,5.429,0,0,0-1,1.285,5.615,5.615,0,0,0-.634,1.627,21.233,21.233,0,0,0-.4,2.63c-.111,1.158-.178,2.206-.178,3.143V40.4H92.54V17.667h2.351v4.6c1.126-3.409,2.9-5.1,5.306-5.1a7.586,7.586,0,0,1,4.023,1.371M82.848,27.166q-.617-7.858-7.111-7.87a6.671,6.671,0,0,0-4.973,2.053,9.393,9.393,0,0,0-2.429,5.818Zm2.9,2.206H68.258a10.927,10.927,0,0,0,2.073,6.89,6.82,6.82,0,0,0,5.585,2.474q4.967,0,6.933-5.529l2.619.446a10.87,10.87,0,0,1-3.755,5.574A10.213,10.213,0,0,1,75.749,40.9,9.422,9.422,0,0,1,68.2,37.724c-1.817-2.132-2.72-5.018-2.72-8.7s.913-6.555,2.74-8.683a9.472,9.472,0,0,1,7.57-3.176q9.866,0,9.956,12.2M62.8,18.539l-1.025,2.294a8.984,8.984,0,0,0-3.053-.868,4.027,4.027,0,0,0-1.459.256A3.7,3.7,0,0,0,56,21.033a5.429,5.429,0,0,0-1,1.285,5.615,5.615,0,0,0-.634,1.627,21.233,21.233,0,0,0-.4,2.63c-.111,1.158-.178,2.206-.178,3.143V40.4H51.121V17.667h2.351v4.6c1.126-3.409,2.9-5.1,5.306-5.1A7.586,7.586,0,0,1,62.8,18.539m-22.653-.868h2.677V40.4H40.148Zm0-8.642h2.677v4H40.148Zm-5.163,0-.446,2.151a18.2,18.2,0,0,0-2.218-.223,4.573,4.573,0,0,0-1.907.346,2.425,2.425,0,0,0-1.179,1.183,8.116,8.116,0,0,0-.426,3.211v1.971h4.75V19.7h-4.75V40.4H26.145V19.7H22.523v-2.03h3.622V15.305a11.5,11.5,0,0,1,.481-3.735,4.227,4.227,0,0,1,1.795-2.218A5.888,5.888,0,0,1,31.7,8.493a14.612,14.612,0,0,1,3.286.536" transform="translate(11.359 8.887)" fill="#fff"/>
  <path id="Path_17674" data-name="Path 17674" d="M8.129,0C41.111,28.692,1.8,42.3,18.592,62-12.247,41.486,25.335,25.324,8.129,0" transform="translate(-5.966 0)" fill="#dc0613"/>
  <path id="Path_17675" data-name="Path 17675" d="M15.9,8.453c5.945,15.986,8.447,29.269-3.276,44.7C37.8,37.407,20.035,18.2,15.9,8.453" transform="translate(1.002 8.845)" fill="#c0c0bf"/>
</svg>
