<svg id="Group_1422" data-name="Group 1422" xmlns="http://www.w3.org/2000/svg" xmlns:xlink="http://www.w3.org/1999/xlink" width="27.393" height="38.527" viewBox="0 0 27.393 38.527">
  <defs>
    <clipPath id="clip-path">
      <rect id="Rectangle_1193" data-name="Rectangle 1193" width="27.393" height="38.527" fill="none"/>
    </clipPath>
  </defs>
  <g id="Group_1261" data-name="Group 1261" clip-path="url(#clip-path)">
    <path id="Path_17698" data-name="Path 17698" d="M15.44,22.662a4.533,4.533,0,0,0-1.931,3.619,24.425,24.425,0,0,0,.431,3.091,3.48,3.48,0,0,1-.021,1.138,1.041,1.041,0,0,1-1.28.931A1.324,1.324,0,0,1,11.492,30.2a3.285,3.285,0,0,1,1.054-2.36c-.28.041-.439.048-.589.088a4.636,4.636,0,0,0-3.171,2.824,8.133,8.133,0,0,0-.536,5.468,12.857,12.857,0,0,0,1.122,2.233A12.639,12.639,0,0,1,5.7,36.47,13.713,13.713,0,0,1,.311,28.353a15.422,15.422,0,0,1,.721-8.547,29.344,29.344,0,0,1,5.388-8.984c.607-.724,1.27-1.4,1.871-2.129A10.526,10.526,0,0,0,10.761.461c-.015-.12,0-.243,0-.461.185.136.336.232.469.348a11.266,11.266,0,0,1,4.1,9.807,32.086,32.086,0,0,1-.852,4.139,8.025,8.025,0,0,0-.163,3.272,2.373,2.373,0,0,0,2.71,2.105,2.846,2.846,0,0,0,2.547-2.627,6.623,6.623,0,0,0-1.943-4.824,1.683,1.683,0,0,1-.42-.549c.355.06.714.1,1.065.182,4.909,1.094,7.652,4.282,8.63,9.085a18.722,18.722,0,0,1-.19,9.284,12.136,12.136,0,0,1-7.872,8.229,2.169,2.169,0,0,1-.251.071.96.96,0,0,1-.162,0,5.865,5.865,0,0,0,1.456-2.634,8.3,8.3,0,0,0-.806-5.691,16.341,16.341,0,0,0-1.971-3.138,5.919,5.919,0,0,1-1.667-4.4" transform="translate(0)" fill="#d80b19"/>
  </g>
</svg>
