<svg id="Group_1267" data-name="Group 1267" xmlns="http://www.w3.org/2000/svg" xmlns:xlink="http://www.w3.org/1999/xlink" width="18" height="17.995" viewBox="0 0 18 17.995">
  <defs>
    <clipPath id="clip-path">
      <rect id="Rectangle_1194" data-name="Rectangle 1194" width="18" height="17.995" fill="none" stroke="rgba(0,0,0,0)" stroke-width="0.5"/>
    </clipPath>
  </defs>
  <g id="Group_1265" data-name="Group 1265" clip-path="url(#clip-path)">
    <path id="Path_17699" data-name="Path 17699" d="M7.175,13.524,5.16,11.511A1.771,1.771,0,0,1,5,11.335a.247.247,0,0,1,0-.346c.306-.316.614-.629.93-.933a.264.264,0,0,1,.395.012c.123.121.232.256.409.454a1.641,1.641,0,0,1,.165-.259q3.387-3.392,6.774-6.783a.516.516,0,0,0,.125-.309c.018-.272.01-.545,0-.818A.35.35,0,0,1,14.021,2q1.428-.711,2.854-1.427a.333.333,0,0,1,.433.067q.4.406.8.805a.343.343,0,0,1,.073.449q-.71,1.406-1.41,2.818a.371.371,0,0,1-.391.244.588.588,0,0,0-.06,0,2.646,2.646,0,0,0-.907.036c-.256.1-.438.4-.649.607Q11.623,8.743,8.48,11.884a2.063,2.063,0,0,1-.225.162c.156.133.273.222.377.324.206.2.205.339,0,.543q-1.369,1.371-2.74,2.739c-.655.654-1.305,1.313-1.965,1.962a2.05,2.05,0,0,1-2.422.418,1.969,1.969,0,0,1-.436-3.109c.738-.777,1.511-1.521,2.268-2.279l.579-.579c.227-.226.372-.253.523-.1s.12.291-.112.524Q2.966,13.854,1.6,15.216a1.548,1.548,0,0,0-.5.974,1.326,1.326,0,0,0,1.874,1.362A1.736,1.736,0,0,0,3.5,17.2C4.71,16,5.908,14.8,7.108,13.6c.019-.019.035-.04.067-.076m.738-1.918c.043-.041.1-.09.147-.14q3.454-3.453,6.905-6.909a.583.583,0,0,1,.475-.2,6.732,6.732,0,0,0,.719,0,.249.249,0,0,0,.179-.11q.6-1.182,1.186-2.373a.227.227,0,0,0-.034-.2c-.115-.137-.256-.252-.375-.387a.18.18,0,0,0-.257-.042c-.58.3-1.165.584-1.747.876-.231.116-.55.184-.664.373a1.537,1.537,0,0,0-.04.779.67.67,0,0,1-.224.545Q10.738,7.255,7.3,10.7c-.054.054-.106.112-.147.155l.757.753m-2.232-.45L7.6,13.082l.439-.425L6.1,10.724l-.424.432" transform="translate(-0.373 -0.392)" fill="#fff" stroke="rgba(0,0,0,0)" stroke-width="0.5"/>
    <path id="Path_17700" data-name="Path 17700" d="M7.175,13.524,5.16,11.511A1.771,1.771,0,0,1,5,11.335a.247.247,0,0,1,0-.346c.306-.316.614-.629.93-.933a.264.264,0,0,1,.395.012c.123.121.232.256.409.454a1.641,1.641,0,0,1,.165-.259q3.387-3.392,6.774-6.783a.516.516,0,0,0,.125-.309c.018-.272.01-.545,0-.818A.35.35,0,0,1,14.021,2q1.428-.711,2.854-1.427a.333.333,0,0,1,.433.067q.4.406.8.805a.343.343,0,0,1,.073.449q-.71,1.406-1.41,2.818a.371.371,0,0,1-.391.244.588.588,0,0,0-.06,0,2.646,2.646,0,0,0-.907.036c-.256.1-.438.4-.649.607Q11.623,8.743,8.48,11.884a2.063,2.063,0,0,1-.225.162c.156.133.273.222.377.324.206.2.205.339,0,.543q-1.369,1.371-2.74,2.739c-.655.654-1.305,1.313-1.965,1.962a2.05,2.05,0,0,1-2.422.418,1.969,1.969,0,0,1-.436-3.109c.738-.777,1.511-1.521,2.268-2.279l.579-.579c.227-.226.372-.253.523-.1s.12.291-.112.524Q2.966,13.854,1.6,15.216a1.548,1.548,0,0,0-.5.974,1.326,1.326,0,0,0,1.874,1.362A1.736,1.736,0,0,0,3.5,17.2C4.71,16,5.908,14.8,7.108,13.6,7.127,13.582,7.143,13.561,7.175,13.524Zm.738-1.918c.043-.041.1-.09.147-.14q3.454-3.453,6.905-6.909a.583.583,0,0,1,.475-.2,6.732,6.732,0,0,0,.719,0,.249.249,0,0,0,.179-.11q.6-1.182,1.186-2.373a.227.227,0,0,0-.034-.2c-.115-.137-.256-.252-.375-.387a.18.18,0,0,0-.257-.042c-.58.3-1.165.584-1.747.876-.231.116-.55.184-.664.373a1.537,1.537,0,0,0-.04.779.67.67,0,0,1-.224.545Q10.738,7.255,7.3,10.7c-.054.054-.106.112-.147.155Zm-2.232-.45L7.6,13.082l.439-.425L6.1,10.724Z" transform="translate(-0.373 -0.392)" fill="none" stroke="#fff" stroke-width="0.5"/>
    <path id="Path_17701" data-name="Path 17701" d="M3.284,1.1A14.46,14.46,0,0,0,4.348,2.141a1.47,1.47,0,0,1,.6,1.453.73.73,0,0,1-.211.49c-.243.227-.465.477-.713.7a.75.75,0,0,1-.348.151,1.522,1.522,0,0,1-1.588-.641A12.511,12.511,0,0,0,1.1,3.284c0,.392.024.728-.007,1.06a.873.873,0,0,0,.336.812c.3.259.564.565.856.837a.479.479,0,0,0,.292.121c.652.011,1.3.008,1.957,0a.507.507,0,0,1,.392.154c.76.766,1.525,1.525,2.283,2.292a.442.442,0,0,1,.143.286.361.361,0,0,1-.187.25.335.335,0,0,1-.287-.048,4.963,4.963,0,0,1-.445-.429c-.6-.6-1.193-1.2-1.8-1.789a.467.467,0,0,0-.292-.12c-.652-.011-1.3-.009-1.957,0a.52.52,0,0,1-.405-.17C1.543,6.094,1.092,5.66.66,5.207a.594.594,0,0,1-.152-.365C.494,4.117.5,3.391.5,2.666c0-.157.022-.3.184-.363a.331.331,0,0,1,.389.122c.592.594,1.188,1.184,1.778,1.781a.487.487,0,0,0,.329.142.757.757,0,0,0,.774-.322.344.344,0,0,1,.1-.1c.352-.212.3-.556.284-.884a.339.339,0,0,0-.116-.174Q3.362,2,2.5,1.144c-.042-.042-.1-.078-.122-.129C2.339.91,2.279.778,2.314.692A.36.36,0,0,1,2.583.51C3.362.5,4.141.5,4.92.507a.426.426,0,0,1,.26.12c.472.46.941.923,1.4,1.4a.57.57,0,0,1,.128.356c.013.632.011,1.265,0,1.9a.5.5,0,0,0,.162.4c.693.681,1.377,1.371,2.065,2.059.042.042.086.084.124.13a.268.268,0,0,1-.011.394.256.256,0,0,1-.391.027Q7.421,6.069,6.2,4.832a.467.467,0,0,1-.076-.3c-.007-.652,0-1.3-.009-1.957A.474.474,0,0,0,6,2.285c-.349-.366-.709-.721-1.071-1.075a.341.341,0,0,0-.2-.107c-.459-.009-.918,0-1.444,0" transform="translate(-0.373 -0.373)" fill="#fff" stroke="rgba(0,0,0,0)" stroke-width="0.5"/>
    <path id="Path_17702" data-name="Path 17702" d="M3.284,1.1A14.46,14.46,0,0,0,4.348,2.141a1.47,1.47,0,0,1,.6,1.453.73.73,0,0,1-.211.49c-.243.227-.465.477-.713.7a.75.75,0,0,1-.348.151,1.522,1.522,0,0,1-1.588-.641A12.511,12.511,0,0,0,1.1,3.284c0,.392.024.728-.007,1.06a.873.873,0,0,0,.336.812c.3.259.564.565.856.837a.479.479,0,0,0,.292.121c.652.011,1.3.008,1.957,0a.507.507,0,0,1,.392.154c.76.766,1.525,1.525,2.283,2.292a.442.442,0,0,1,.143.286.361.361,0,0,1-.187.25.335.335,0,0,1-.287-.048,4.963,4.963,0,0,1-.445-.429c-.6-.6-1.193-1.2-1.8-1.789a.467.467,0,0,0-.292-.12c-.652-.011-1.3-.009-1.957,0a.52.52,0,0,1-.405-.17C1.543,6.094,1.092,5.66.66,5.207a.594.594,0,0,1-.152-.365C.494,4.117.5,3.391.5,2.666c0-.157.022-.3.184-.363a.331.331,0,0,1,.389.122c.592.594,1.188,1.184,1.778,1.781a.487.487,0,0,0,.329.142.757.757,0,0,0,.774-.322.344.344,0,0,1,.1-.1c.352-.212.3-.556.284-.884a.339.339,0,0,0-.116-.174Q3.362,2,2.5,1.144c-.042-.042-.1-.078-.122-.129C2.339.91,2.279.778,2.314.692A.36.36,0,0,1,2.583.51C3.362.5,4.141.5,4.92.507a.426.426,0,0,1,.26.12c.472.46.941.923,1.4,1.4a.57.57,0,0,1,.128.356c.013.632.011,1.265,0,1.9a.5.5,0,0,0,.162.4c.693.681,1.377,1.371,2.065,2.059.042.042.086.084.124.13a.268.268,0,0,1-.011.394.256.256,0,0,1-.391.027Q7.421,6.069,6.2,4.832a.467.467,0,0,1-.076-.3c-.007-.652,0-1.3-.009-1.957A.474.474,0,0,0,6,2.285c-.349-.366-.709-.721-1.071-1.075a.341.341,0,0,0-.2-.107C4.269,1.093,3.81,1.1,3.284,1.1Z" transform="translate(-0.373 -0.373)" fill="none" stroke="#fff" stroke-width="0.5"/>
    <path id="Path_17703" data-name="Path 17703" d="M42.284,44.473c-.477-.474-.9-.916-1.347-1.331a1.009,1.009,0,0,1-.321-.747,1.473,1.473,0,0,1,.5-1.219,1.519,1.519,0,0,1,1.357-.554.859.859,0,0,1,.595.25c.4.42.815.822,1.225,1.232.046.045.094.088.175.164,0-.515,0-.99,0-1.465,0-.049-.052-.1-.092-.145-.365-.369-.73-.739-1.1-1.1a.416.416,0,0,0-.26-.1c-.659-.009-1.318-.008-1.977,0a.5.5,0,0,1-.391-.157q-1.139-1.149-2.285-2.29a.719.719,0,0,1-.081-.088.28.28,0,0,1,.023-.382.269.269,0,0,1,.379-.035,1.115,1.115,0,0,1,.146.135c.7.7,1.4,1.4,2.108,2.1a.467.467,0,0,0,.292.121c.652.011,1.3.009,1.957,0a.522.522,0,0,1,.406.168q.65.663,1.313,1.314a.521.521,0,0,1,.169.406c-.006.719,0,1.438,0,2.157,0,.157-.022.3-.183.364a.33.33,0,0,1-.389-.121c-.591-.595-1.187-1.185-1.776-1.782a.487.487,0,0,0-.33-.141.758.758,0,0,0-.775.322.4.4,0,0,1-.113.112c-.346.211-.285.55-.27.87,0,.06.067.125.116.175q.865.871,1.735,1.738c.038.038.094.069.108.115.035.106.1.238.062.324a.36.36,0,0,1-.27.182c-.779.015-1.558.013-2.337,0a.454.454,0,0,1-.274-.134c-.467-.455-.931-.914-1.381-1.386a.572.572,0,0,1-.129-.355c-.012-.639-.011-1.278,0-1.917a.481.481,0,0,0-.163-.382c-.7-.687-1.387-1.381-2.079-2.073a1.027,1.027,0,0,1-.144-.164.26.26,0,0,1,.046-.345.264.264,0,0,1,.344-.059.694.694,0,0,1,.137.115q1.145,1.143,2.29,2.285a.505.505,0,0,1,.155.391c0,.652-.007,1.3,0,1.957a.473.473,0,0,0,.12.292c.349.366.709.722,1.071,1.075a.338.338,0,0,0,.2.105c.459.009.918,0,1.442,0" transform="translate(-27.197 -27.203)" fill="#fff" stroke="rgba(0,0,0,0)" stroke-width="0.5"/>
    <path id="Path_17704" data-name="Path 17704" d="M42.284,44.473c-.477-.474-.9-.916-1.347-1.331a1.009,1.009,0,0,1-.321-.747,1.473,1.473,0,0,1,.5-1.219,1.519,1.519,0,0,1,1.357-.554.859.859,0,0,1,.595.25c.4.42.815.822,1.225,1.232.046.045.094.088.175.164,0-.515,0-.99,0-1.465,0-.049-.052-.1-.092-.145-.365-.369-.73-.739-1.1-1.1a.416.416,0,0,0-.26-.1c-.659-.009-1.318-.008-1.977,0a.5.5,0,0,1-.391-.157q-1.139-1.149-2.285-2.29a.719.719,0,0,1-.081-.088.28.28,0,0,1,.023-.382.269.269,0,0,1,.379-.035,1.115,1.115,0,0,1,.146.135c.7.7,1.4,1.4,2.108,2.1a.467.467,0,0,0,.292.121c.652.011,1.3.009,1.957,0a.522.522,0,0,1,.406.168q.65.663,1.313,1.314a.521.521,0,0,1,.169.406c-.006.719,0,1.438,0,2.157,0,.157-.022.3-.183.364a.33.33,0,0,1-.389-.121c-.591-.595-1.187-1.185-1.776-1.782a.487.487,0,0,0-.33-.141.758.758,0,0,0-.775.322.4.4,0,0,1-.113.112c-.346.211-.285.55-.27.87,0,.06.067.125.116.175q.865.871,1.735,1.738c.038.038.094.069.108.115.035.106.1.238.062.324a.36.36,0,0,1-.27.182c-.779.015-1.558.013-2.337,0a.454.454,0,0,1-.274-.134c-.467-.455-.931-.914-1.381-1.386a.572.572,0,0,1-.129-.355c-.012-.639-.011-1.278,0-1.917a.481.481,0,0,0-.163-.382c-.7-.687-1.387-1.381-2.079-2.073a1.027,1.027,0,0,1-.144-.164.26.26,0,0,1,.046-.345.264.264,0,0,1,.344-.059.694.694,0,0,1,.137.115q1.145,1.143,2.29,2.285a.505.505,0,0,1,.155.391c0,.652-.007,1.3,0,1.957a.473.473,0,0,0,.12.292c.349.366.709.722,1.071,1.075a.338.338,0,0,0,.2.105C41.3,44.478,41.76,44.473,42.284,44.473Z" transform="translate(-27.197 -27.203)" fill="none" stroke="#fff" stroke-width="0.5"/>
  </g>
</svg>
