<svg xmlns="http://www.w3.org/2000/svg" xmlns:xlink="http://www.w3.org/1999/xlink" width="343.5" height="55.579" viewBox="0 0 343.5 55.579">
  <defs>
    <clipPath id="clip-path">
      <rect id="Rectangle_1191" data-name="Rectangle 1191" width="241.99" height="38.64" fill="none"/>
    </clipPath>
  </defs>
  <g id="Group_1250" data-name="Group 1250" transform="translate(0 8.469)">
    <g id="Group_1247" data-name="Group 1247" transform="translate(0 0)">
      <g id="Group_1445" data-name="Group 1445">
        <path id="Path_17691" data-name="Path 17691" d="M202.355,58.578V62.4m0,0h.351m4.664-50.759V7.819m0,0h-.351m.351,54.579V11.639m-.351-3.82h-4.664m0,0V58.578m.351,3.82h4.664" transform="translate(135.631 -15.788)" fill="#fff" stroke="#d5d5d5" stroke-linecap="round" stroke-linejoin="round" stroke-width="1"/>
      </g>
    </g>
    <path id="Path_17747" data-name="Path 17747" d="M57.492-4.334l147.92,1.67" transform="translate(132.043 19.907)" fill="#c21330" stroke="#c21330" stroke-linecap="round" stroke-width="1"/>
    <path id="Path_17692" data-name="Path 17692" d="M54.457,23.61l-1.573-3.7,1.573-3.7-8.778,3.7Z" transform="translate(137.155 -4.291)" fill="#c21330" stroke="#c21330" stroke-width="1"/>
    <path id="Path_17745" data-name="Path 17745" d="M296.818,0,.16,6.415" transform="translate(34.345 6.381)" fill="none" stroke="#919090" stroke-linecap="round" stroke-width="1" stroke-dasharray="3"/>
    <path id="Path_17693" data-name="Path 17693" d="M192.561,9.729,194.2,13.4l-1.508,3.73,8.712-3.858Z" transform="translate(135.729 -7)" fill="#919090"/>
    <path id="Path_17746" data-name="Path 17746" d="M-.125-6.123,296.818,2.95" transform="translate(34.345 23.483)" fill="none" stroke="#919090" stroke-linecap="round" stroke-width="1" stroke-dasharray="2"/>
    <path id="Path_17694" data-name="Path 17694" d="M192.561,30.086l1.639-3.675-1.508-3.73,8.712,3.858Z" transform="translate(135.729 0)" fill="#919090"/>
    <g id="Group_1249" data-name="Group 1249" transform="translate(0 0)">
      <g id="Group_1248" data-name="Group 1248" clip-path="url(#clip-path)">
        <path id="Path_17695" data-name="Path 17695" d="M8.566,27.857l.038-.109m11.522-1.63q1.313-.182,2.621-.385m.477.008v.179m-3.575.529v-.186m3.1-.53.093-.013.09-.008.082,0a.444.444,0,0,1,.073,0,.515.515,0,0,1,.1.01.108.108,0,0,1,.027.01.025.025,0,0,1,.008.014m-3.575.522a.023.023,0,0,1,.009-.016.218.218,0,0,1,.027-.018l.045-.02c.016-.006.037-.013.059-.019a.686.686,0,0,1,.071-.021l.082-.019c.057-.013.119-.023.184-.032M10.294,1.137V1m0,.137v.068M22.747,25.733q-1.306.2-2.621.385m0,0-.094.014-.09.018-.082.019c-.026.007-.048.013-.071.021a.461.461,0,0,0-.059.019l-.045.02c-.024.013-.037.024-.037.034m0,0v.186m3.575-.513v-.2m0,0a.025.025,0,0,0-.008-.014.108.108,0,0,0-.027-.01.373.373,0,0,0-.044-.007.54.54,0,0,0-.06,0,1.229,1.229,0,0,0-.156,0l-.088.008-.094.013m-5.62-5.892c1.175-.21,2.343-.45,3.5-.731q.866-.208,1.718-.453c.569-.163,1.134-.34,1.689-.532s1.1-.4,1.634-.631c.266-.116.529-.238.79-.368s.513-.268.757-.416a7.312,7.312,0,0,0,.707-.474c.113-.086.222-.175.326-.268a3.676,3.676,0,0,0,.293-.289,2.68,2.68,0,0,0,.257-.316,2.321,2.321,0,0,0,.2-.343,1.869,1.869,0,0,0,.127-.369,1.6,1.6,0,0,0,.035-.382,1.581,1.581,0,0,0-.061-.38,1.511,1.511,0,0,0-.064-.185,1.842,1.842,0,0,0-.085-.178,2.381,2.381,0,0,0-.216-.335,3.409,3.409,0,0,0-.267-.309,4.88,4.88,0,0,0-.63-.542c-.112-.083-.23-.163-.349-.241s-.239-.152-.364-.224q-.369-.218-.755-.406c-.258-.128-.518-.246-.782-.36-.529-.227-1.069-.431-1.618-.619s-1.108-.361-1.672-.523-1.132-.31-1.7-.449c-1.143-.276-2.3-.514-3.464-.722m0,0V19.841m15.1,4.462V14.319m0,0V4.334M10.294,1.206V27.435M33.057,4.669v19.3M32.222,4.334V24.3M9.574,27.715h0m0-25.739V1.921m-8.342.123V2.13M9.58,1.921l-1.3.018c-.458.008-.918.014-1.38.021l-1.461.022L4.083,2l-1.4.021c-.48.007-.962.015-1.442.021M3.495,37.423v.016l0,0,0,0,0,0H3.465m-2.227-.155v.346m2.227-1.947v1.756m0,0-.193.007-.265.01M9.548,27.74h.019l0,0,0,0,0-.005v-.011M8.6,27.74h.944m-8.31,6.341v2.593M3.171,14.623H3.156l-.014,0H3.083l-.016,0H3.05m.12-.609H3.164l-.012,0h-.09l-.011,0h0m4.854.609h.02a.047.047,0,0,0,.018,0H8l.014,0h.008M7.9,14.014h.119m-.119.609A2.368,2.368,0,0,1,5.18,16.33a2.24,2.24,0,0,1-2.009-1.707m0-.609A2.368,2.368,0,0,1,5.9,12.308,2.236,2.236,0,0,1,7.9,14.014m-2.25.305a.112.112,0,0,0-.12-.1.1.1,0,1,0,0,.2A.113.113,0,0,0,5.655,14.319Zm.114,0a.242.242,0,1,0-.239.2A.224.224,0,0,0,5.769,14.319Zm1.984,0A2.076,2.076,0,0,0,5.53,12.43a2.077,2.077,0,0,0-2.224,1.889A2.077,2.077,0,0,0,5.53,16.207,2.076,2.076,0,0,0,7.753,14.319Zm.27.3.013-.005m0,0,.007-.009,0-.012,0-.011,0-.012v-.01m0-.491a2.442,2.442,0,0,1,0,.491m0-.491v-.012l0-.011,0-.012-.006-.013-.006-.006m-.013-.005.013.005M3.05,14.014l-.014.005m0,0a.022.022,0,0,0-.008.01l-.007.01,0,.013,0,.011v.01m0,.491a2.442,2.442,0,0,1,0-.491m0,.491v.011l0,.012,0,.012.007.012.007.007m.014.005-.014-.005m-1.8,8.155v.242M9.58,19.4V27.49M4.814,21.884l.536-.215m0,0c.038-.014.074-.03.113-.046s.074-.03.112-.046m4,5.913v.225m0-17.686V9.72M1.238,8.242v.366M9.58,19.4v-.285m-4,2.459c.338-.146.675-.293,1.006-.449s.662-.327.983-.5c.11-.06.218-.12.325-.182s.216-.125.324-.189.217-.13.325-.2.219-.139.331-.206.244-.144.362-.218.233-.152.348-.23m-8.342,3.37V8.608M8.2,14.319a2.494,2.494,0,0,0-2.67-2.268,2.493,2.493,0,0,0-2.669,2.268,2.493,2.493,0,0,0,2.669,2.267A2.494,2.494,0,0,0,8.2,14.319ZM1.238,34.081V23.015m0,0c.608-.157,1.214-.314,1.808-.5s1.183-.409,1.769-.629M1,5.449V3.975m0,0,0-.01.009-.011.015-.006.019,0h.009m0,0h.125m0,0,.02,0,.018,0,.012-.009.006-.01V3.912m0-1.782V3.912M9.58,9.72V1.976m0,7.744c-.428-.113-.857-.227-1.288-.331q-.686-.164-1.38-.3-.734-.148-1.472-.276-.672-.115-1.348-.215c-.465-.069-.932-.133-1.4-.189-.483-.059-.97-.112-1.454-.163m0-2.708V8.242m0-2.708,0-.013-.009-.012A.039.039,0,0,0,1.21,5.5L1.192,5.5H1.181m0,0-.125-.008m0,0-.02,0a.047.047,0,0,1-.016-.007.039.039,0,0,1-.013-.009L1,5.455V5.449m8.544,22.37h-.7l-.258,0m.984.023v-.007l0-.006-.007-.005-.009,0m-.978.038c-.222.664-.443,1.328-.673,1.989s-.468,1.322-.7,1.982c-.173.48-.345.96-.531,1.436-.121.31-.249.617-.391.921-.072.152-.147.3-.233.451a2.7,2.7,0,0,1-.3.418,1.708,1.708,0,0,1-.324.294,1.367,1.367,0,0,1-.2.111,1.062,1.062,0,0,1-.223.076c-.059.014-.119.022-.18.031m0,0-1.339.121m6.1-7.848c-.031.36-.061.719-.108,1.077s-.11.714-.178,1.07-.141.71-.222,1.063-.167.707-.262,1.057-.2.7-.305,1.049q-.131.408-.277.812c-.1.268-.2.536-.319.8s-.247.523-.377.782m0,0h0l-.028.052c-.021.036-.052.088-.091.151-.021.037-.046.077-.073.119s-.058.091-.09.139-.072.107-.11.161-.081.113-.125.17c-.081.106-.166.211-.253.308l-.04.045a3.2,3.2,0,0,1-.246.238,2.31,2.31,0,0,1-.219.169,1.112,1.112,0,0,1-.1.067l-.028.017m0,0-.088.048a2.03,2.03,0,0,1-.384.15,2.6,2.6,0,0,1-.412.081c-.139.015-.279.023-.421.03M1.058,37.24A.054.054,0,0,1,1,37.19m0-.026v.026m.058.05.123,0m0,0a.055.055,0,0,1,.058.05M1,36.766v.4m.238-.509a.054.054,0,0,1-.054.05M10.16,1.194a.112.112,0,0,1,.108.1m0,26.048v-.1c0-.044,0-.107,0-.182v-.272c0-.107,0-.23,0-.369s0-.291,0-.457c0-.2,0-.413,0-.653s0-.508,0-.775m0,0h0m.008-23.235c0,.029,0,.057,0,.081s0,.041,0,.051v.017M10.26,24.527c0-.149.011-.3.015-.454.006-.176.013-.361.019-.545m-.034,1h0M9.579,1.151l.405.03.176.013m-.581-.043V27.489m10.07-1.035,0-.2m3.582-.515,0,.181m0,.017q-1.785.276-3.578.514M10.294,1l1.652.338M32.222,24.3q-4.468.936-9,1.634m-3.574.514q-4.659.618-9.356.984m1.663-26.1a172.142,172.142,0,0,1,20.266,3m.834,19.634a.211.211,0,0,1-.18.2m0-19.691a.211.211,0,0,1,.18.2m-.18,19.495-.654.139m0-19.969.654.139M3.483,37.436l-.018.012M9.58,27.472l-.012.243M3.007,37.469c-.026.01-.052.022-.08.032a1.529,1.529,0,0,1-.29.069c-.111.017-.223.025-.336.034m0,0c-.355.012-.708.025-1.063.036m3.568-.147q-.643.033-1.286.061m0,0a.024.024,0,0,1-.026-.019h0M1,36.766a.054.054,0,0,1,.054-.051m0,0,.13-.01M10.269,1.393v.051m-.111-.25a.112.112,0,0,1,.108.1m0,26.05a.11.11,0,0,1-.108.1m.134-1.384-.026,1.281m0-25.9.024,1.133M10.16,27.445l-.581.044" transform="translate(0.178 0)" fill="none" stroke="#fff" stroke-linecap="round" stroke-linejoin="round" stroke-width="2"/>
      </g>
    </g>
  </g>
</svg>
