<svg xmlns="http://www.w3.org/2000/svg" xmlns:xlink="http://www.w3.org/1999/xlink" width="205.357" height="38.64" viewBox="0 0 205.357 38.64">
  <defs>
    <clipPath id="clip-path">
      <rect id="Rectangle_1190" data-name="Rectangle 1190" width="205.357" height="38.64" transform="translate(0 0)" fill="none"/>
    </clipPath>
  </defs>
  <g id="Group_1250" data-name="Group 1250" transform="translate(0 0)">
    <g id="Group_1247" data-name="Group 1247">
      <g id="Group_1246" data-name="Group 1246" clip-path="url(#clip-path)">
        <path id="Path_17691" data-name="Path 17691" d="M202.355,29.212v1.61m0,0h.105m1.4-21.393V7.819m0,0h-.1m.1,23V9.429m-.1-1.61h-1.4m0,0V29.212m.105,1.61h1.4" fill="none" stroke="#575756" stroke-linecap="round" stroke-linejoin="round" stroke-width="3"/>
      </g>
    </g>
    <line id="Line_65" data-name="Line 65" x2="149.755" transform="translate(51.649 19.907)" fill="none" stroke="#d60b19" stroke-linecap="round" stroke-linejoin="round" stroke-width="1"/>
    <path id="Path_17692" data-name="Path 17692" d="M54.457,23.61l-1.573-3.7,1.573-3.7-8.778,3.7Z" fill="#d60b19"/>
    <line id="Line_66" data-name="Line 66" x1="166.581" y2="2.95" transform="translate(28.854 13.382)" fill="none" stroke="#919090" stroke-linecap="round" stroke-linejoin="round" stroke-width="1"/>
    <path id="Path_17693" data-name="Path 17693" d="M192.561,9.729,194.2,13.4l-1.508,3.73,8.712-3.858Z" fill="#919090"/>
    <line id="Line_67" data-name="Line 67" x2="166.581" y2="2.95" transform="translate(28.854 23.483)" fill="none" stroke="#919090" stroke-linecap="round" stroke-linejoin="round" stroke-width="1"/>
    <path id="Path_17694" data-name="Path 17694" d="M192.561,30.086l1.639-3.675-1.508-3.73,8.712,3.858Z" fill="#919090"/>
    <g id="Group_1249" data-name="Group 1249">
      <g id="Group_1248" data-name="Group 1248" clip-path="url(#clip-path)">
        <path id="Path_17695" data-name="Path 17695" d="M7.421,27.857l.032-.109m9.778-1.63q1.115-.182,2.224-.385m.405.008v.179m-3.034.529v-.186m2.629-.53.079-.013.076-.008.07,0a.32.32,0,0,1,.062,0,.374.374,0,0,1,.088.01.083.083,0,0,1,.023.01.026.026,0,0,1,.007.014m-3.034.522a.024.024,0,0,1,.008-.016.186.186,0,0,1,.023-.018l.038-.02a.535.535,0,0,1,.05-.019.518.518,0,0,1,.06-.021l.07-.019a1.587,1.587,0,0,1,.156-.032M8.887,1.137V1m0,.137v.068M19.455,25.733q-1.109.2-2.224.385m0,0-.08.014-.076.018-.07.019c-.022.007-.041.013-.06.021a.351.351,0,0,0-.05.019l-.038.02c-.02.013-.031.024-.031.034m0,0v.186m3.034-.513v-.2m0,0a.026.026,0,0,0-.007-.014.083.083,0,0,0-.023-.01.273.273,0,0,0-.037-.007.389.389,0,0,0-.051,0,.886.886,0,0,0-.132,0l-.075.008-.08.013m-4.769-5.892c1-.21,1.988-.45,2.967-.731q.735-.208,1.458-.453c.483-.163.962-.34,1.433-.532s.934-.4,1.387-.631c.226-.116.449-.238.67-.368s.435-.268.642-.416a6.246,6.246,0,0,0,.6-.474c.1-.086.188-.175.277-.268a3.442,3.442,0,0,0,.249-.289,2.646,2.646,0,0,0,.218-.316,2.443,2.443,0,0,0,.172-.343,2.1,2.1,0,0,0,.108-.369,1.882,1.882,0,0,0,.03-.382,1.841,1.841,0,0,0-.052-.38,1.7,1.7,0,0,0-.054-.185c-.021-.061-.046-.121-.072-.178a2.468,2.468,0,0,0-.183-.335,3.317,3.317,0,0,0-.227-.309,4.42,4.42,0,0,0-.535-.542c-.095-.083-.195-.163-.3-.241s-.2-.152-.309-.224q-.314-.218-.641-.406c-.219-.128-.44-.246-.664-.36-.449-.227-.907-.431-1.373-.619s-.94-.361-1.419-.523-.961-.31-1.446-.449c-.97-.276-1.951-.514-2.94-.722m0,0V19.841M27.5,24.3V14.319m0,0V4.334M8.887,1.206V27.435M28.2,4.669v19.3M27.5,4.334V24.3M8.276,27.715h0m0-25.739V1.921M1.2,2.044V2.13m7.079-.209-1.1.018c-.389.008-.779.014-1.171.021l-1.24.022L3.616,2l-1.19.021c-.407.007-.816.015-1.224.021M3.117,37.423v.016l0,0,0,0,0,0H3.092M1.2,37.294v.346m1.89-1.947v1.756m0,0-.164.007-.225.01M8.254,27.74H8.27l0,0,0,0,0-.005v-.011m-.827.025h.8M1.2,34.081v2.593m1.64-22.051H2.83l-.012,0h-.05l-.014,0H2.74m.1-.609H2.836l-.01,0H2.75l-.009,0h0m4.119.609h.017a.034.034,0,0,0,.015,0H6.94l.012,0h.007m-.1-.609h.1m-.1.609a2.031,2.031,0,0,1-4.017,0m0-.609a2.031,2.031,0,0,1,4.017,0m-1.909.305a.1.1,0,1,0-.1.1A.1.1,0,0,0,4.95,14.319Zm.1,0a.2.2,0,1,0-.2.2A.2.2,0,0,0,5.047,14.319Zm1.684,0a1.887,1.887,0,1,0-1.887,1.888A1.887,1.887,0,0,0,6.731,14.319Zm.229.3.011-.005m0,0,.006-.009,0-.012,0-.011,0-.012v-.01m0-.491a2.875,2.875,0,0,1,0,.491m0-.491v-.012l0-.011,0-.012-.005-.013,0-.006m-.011-.005.011.005M2.74,14.014l-.012.005m0,0a.021.021,0,0,0-.007.01l-.006.01,0,.013,0,.011v.01m0,.491a2.875,2.875,0,0,1,0-.491m0,.491v.011l0,.012,0,.012.006.012.006.007m.012.005-.012-.005M1.2,22.773v.242M8.281,19.4V27.49M4.237,21.884l.455-.215m0,0c.032-.014.063-.03.1-.046s.063-.03.095-.046m3.4,5.913v.225m0-17.686V9.72M1.2,8.242v.366M8.281,19.4v-.285m-3.4,2.459c.287-.146.573-.293.854-.449s.562-.327.834-.5c.093-.06.185-.12.276-.182s.183-.125.275-.189.184-.13.276-.2.186-.139.281-.206.207-.144.307-.218.2-.152.3-.23M1.2,22.773V8.608m5.906,5.711a2.266,2.266,0,1,0-2.266,2.267A2.267,2.267,0,0,0,7.108,14.319ZM1.2,34.081V23.015m0,0c.516-.157,1.03-.314,1.534-.5s1-.409,1.5-.629M1,5.449V3.975m0,0,0-.01.008-.011.013-.006.016,0h.008m0,0h.106m0,0,.017,0,.015,0,.01-.009,0-.01V3.912m0-1.782V3.912M8.281,9.72V1.976m0,7.744c-.363-.113-.727-.227-1.093-.331q-.582-.164-1.171-.3-.622-.148-1.249-.276-.57-.115-1.144-.215c-.395-.069-.791-.133-1.188-.189S1.613,8.293,1.2,8.242m0-2.708V8.242m0-2.708,0-.013-.008-.012A.032.032,0,0,0,1.178,5.5L1.163,5.5H1.154m0,0-.106-.008m0,0-.017,0a.037.037,0,0,1-.014-.007.033.033,0,0,1-.011-.009l0-.013V5.449m7.251,22.37h-.6l-.219,0m.835.023v-.007l0-.006-.006-.005-.008,0m-.83.038c-.188.664-.376,1.328-.571,1.989s-.4,1.322-.6,1.982c-.147.48-.293.96-.451,1.436-.1.31-.211.617-.332.921-.061.152-.125.3-.2.451a2.741,2.741,0,0,1-.254.418,1.568,1.568,0,0,1-.275.294,1.12,1.12,0,0,1-.172.111.813.813,0,0,1-.189.076,1.535,1.535,0,0,1-.153.031m0,0-1.136.121M8.27,27.839c-.026.36-.052.719-.092,1.077s-.093.714-.151,1.07-.12.71-.188,1.063-.142.707-.222,1.057-.166.7-.259,1.049q-.111.408-.235.812c-.083.268-.171.536-.271.8s-.21.523-.32.782m0,0h0l-.024.052c-.018.036-.044.088-.077.151-.018.037-.039.077-.062.119s-.049.091-.076.139-.061.107-.093.161-.069.113-.106.17c-.069.106-.141.211-.215.308l-.034.045a2.981,2.981,0,0,1-.209.238,2.036,2.036,0,0,1-.186.169.941.941,0,0,1-.088.067l-.024.017m0,0-.075.048a1.577,1.577,0,0,1-.326.15,1.911,1.911,0,0,1-.35.081c-.118.015-.237.023-.357.03M1.049,37.24A.049.049,0,0,1,1,37.19m0-.026v.026m.049.05.1,0m0,0a.051.051,0,0,1,.049.05M1,36.766v.4m.2-.509a.05.05,0,0,1-.046.05M8.773,1.194a.1.1,0,0,1,.092.1m0,26.048v-.1c0-.044,0-.107,0-.182v-.272c0-.107,0-.23,0-.369s0-.291,0-.457c0-.2,0-.413,0-.653s0-.508,0-.775m0,0h0M8.865,1.294c0,.029,0,.057,0,.081s0,.041,0,.051v.017M8.858,24.527c0-.149.009-.3.013-.454.005-.176.011-.361.016-.545m-.029,1h0M8.28,1.151l.344.03.149.013M8.28,1.151V27.489m8.546-1.035,0-.2m3.04-.515,0,.181m0,.017q-1.515.276-3.036.514M8.887,1l1.4.338M27.5,24.3q-3.792.936-7.636,1.634m-3.033.514q-3.954.618-7.94.984M10.3,1.339a125.557,125.557,0,0,1,17.2,3M28.2,23.968a.2.2,0,0,1-.153.2m0-19.691a.2.2,0,0,1,.153.2m-.153,19.495L27.5,24.3m0-19.969.555.139M3.107,37.436l-.015.012m5.189-9.976-.01.243M2.7,37.469c-.022.01-.044.022-.068.032a1.137,1.137,0,0,1-.246.069c-.094.017-.189.025-.285.034m0,0c-.3.012-.6.025-.9.036m3.028-.147q-.546.033-1.091.061m0,0a.021.021,0,0,1-.022-.019h0M1,36.766a.05.05,0,0,1,.046-.051m0,0,.11-.01M8.866,1.393v.051m-.094-.25a.1.1,0,0,1,.092.1m0,26.05a.1.1,0,0,1-.092.1m.114-1.384-.022,1.281m0-25.9.02,1.133M8.773,27.445l-.493.044" fill="none" stroke="#d60b19" stroke-linecap="round" stroke-linejoin="round" stroke-width="2"/>
      </g>
    </g>
  </g>
</svg>
