<svg id="Group_1271" data-name="Group 1271" xmlns="http://www.w3.org/2000/svg" xmlns:xlink="http://www.w3.org/1999/xlink" width="18.005" height="18" viewBox="0 0 18.005 18">
  <defs>
    <clipPath id="clip-path">
      <rect id="Rectangle_1196" data-name="Rectangle 1196" width="18.005" height="18" fill="none"/>
    </clipPath>
  </defs>
  <g id="Group_1270" data-name="Group 1270" clip-path="url(#clip-path)">
    <path id="Path_17708" data-name="Path 17708" d="M13.794,16.3a1.5,1.5,0,0,1-1.122-.536c-.246-.259-.249-.249-.569-.109-.252.11-.508.214-.767.3a.184.184,0,0,0-.148.206,3.69,3.69,0,0,1-.032.645A1.428,1.428,0,0,1,9.76,17.994c-.5.008-1,.007-1.5,0a1.459,1.459,0,0,1-1.447-1.434c0-.178.052-.4-.032-.522s-.312-.141-.475-.21c-.192-.082-.385-.161-.569-.257a.188.188,0,0,0-.269.049,3.519,3.519,0,0,1-.3.3,1.455,1.455,0,0,1-2.005-.032q-.53-.513-1.043-1.043a1.413,1.413,0,0,1,0-2.028c.321-.3.392-.545.151-.912a4.6,4.6,0,0,1-.235-.577.272.272,0,0,0-.182-.133c-.221-.026-.449,0-.667-.044A1.427,1.427,0,0,1,.007,9.771Q-.007,9,.007,8.228a1.412,1.412,0,0,1,1.419-1.4c.434.015.679-.088.754-.529a1.6,1.6,0,0,1,.155-.369c.158-.346.158-.345-.12-.624a1.468,1.468,0,0,1,0-2.245c.311-.311.619-.624.933-.932a1.416,1.416,0,0,1,2.044-.007c.295.312.533.4.893.15a1.506,1.506,0,0,1,.5-.2c.2-.048.248-.15.24-.346a2.324,2.324,0,0,1,.055-.664A1.43,1.43,0,0,1,8.239.006Q9-.006,9.76.006a1.414,1.414,0,0,1,1.416,1.428c-.015.44.108.67.539.748a1.057,1.057,0,0,1,.408.177c.228.162.379.09.539-.1a1.452,1.452,0,0,1,.794-.51,1.408,1.408,0,0,1,1.35.336c.38.357.748.727,1.108,1.1a1.41,1.41,0,0,1-.024,1.995c-.318.3-.394.547-.149.912a1.775,1.775,0,0,1,.2.518.237.237,0,0,0,.281.206,2.692,2.692,0,0,1,.6.031A1.428,1.428,0,0,1,18,8.231q.015.76,0,1.52a1.41,1.41,0,0,1-1.422,1.42c-.455-.015-.67.121-.767.552-.051.228-.281.45-.254.65s.284.355.431.537a1.447,1.447,0,0,1-.06,1.886c-.362.386-.74.756-1.122,1.123a1.381,1.381,0,0,1-1.012.378M9,16.942h.715a.385.385,0,0,0,.412-.426c0-.29,0-.581,0-.872a.567.567,0,0,1,.421-.562q.84-.325,1.666-.687a.556.556,0,0,1,.694.1c.2.2.4.4.6.6a.386.386,0,0,0,.622.011q.5-.484.98-.98a.381.381,0,0,0,0-.606c-.192-.2-.391-.389-.584-.586a.57.57,0,0,1-.109-.747c.24-.534.461-1.077.67-1.624a.57.57,0,0,1,.572-.437c.283,0,.566,0,.85,0s.434-.132.439-.418q.013-.7,0-1.408c-.005-.285-.15-.41-.443-.413s-.566,0-.85,0a.571.571,0,0,1-.562-.423q-.326-.84-.687-1.665a.553.553,0,0,1,.1-.693c.2-.208.413-.409.615-.618a.375.375,0,0,0,.007-.59q-.49-.506-1-1a.38.38,0,0,0-.606.006c-.2.2-.4.4-.6.6a.561.561,0,0,1-.711.1q-.813-.361-1.645-.679a.574.574,0,0,1-.434-.575c0-.283,0-.566,0-.849A.381.381,0,0,0,9.7,1.061c-.47-.008-.939-.009-1.409,0a.375.375,0,0,0-.408.426c0,.291,0,.581,0,.872a.57.57,0,0,1-.424.56q-.84.325-1.666.687a.557.557,0,0,1-.693-.1c-.2-.2-.4-.4-.6-.6A.386.386,0,0,0,3.874,2.9q-.488.477-.965.964a.391.391,0,0,0,.008.638c.188.192.38.379.568.57a.57.57,0,0,1,.105.747q-.357.79-.664,1.6a.579.579,0,0,1-.6.455c-.276,0-.552,0-.827,0s-.43.133-.435.421c-.007.469-.008.939,0,1.408a.374.374,0,0,0,.424.409c.291,0,.581,0,.872,0a.569.569,0,0,1,.561.422q.325.84.687,1.666a.557.557,0,0,1-.1.693c-.2.209-.413.409-.615.618a.375.375,0,0,0-.007.59q.49.505,1,1a.381.381,0,0,0,.606-.006c.2-.2.4-.4.6-.6a.557.557,0,0,1,.71-.1q.813.36,1.645.679a.572.572,0,0,1,.435.574c0,.283,0,.566,0,.849a.384.384,0,0,0,.42.438c.231.008.462,0,.693,0" transform="translate(0 0)" fill="#fff"/>
    <path id="Path_17709" data-name="Path 17709" d="M21.925,26.448a4.528,4.528,0,1,1,4.532-4.53,4.526,4.526,0,0,1-4.532,4.53M25.4,22.041a3.472,3.472,0,1,0-3.608,3.347A3.47,3.47,0,0,0,25.4,22.041" transform="translate(-12.927 -12.92)" fill="#fff"/>
  </g>
</svg>
