<svg xmlns="http://www.w3.org/2000/svg" width="343.829" height="168.284" viewBox="0 0 343.829 168.284">
  <g id="Group_1442" data-name="Group 1442" transform="translate(-2467.511 4952.457)">
    <path id="Path_17739" data-name="Path 17739" d="M2608.024-5157.614s11.383-54.109,146.458-41.968,196.542-44.771,196.542-44.771" transform="translate(-140.024 292.264)" fill="none" stroke="#88b51f" stroke-width="1"/>
    <path id="Path_17739-2" data-name="Path 17739" d="M2608.024-5157.614s11.383-54.109,146.458-41.968,196.542-44.771,196.542-44.771" transform="translate(-140.024 302.398)" fill="none" stroke="#88b51f" stroke-width="1"/>
    <path id="Path_17739-3" data-name="Path 17739" d="M2608.024-5157.614s11.383-54.109,146.458-41.968,196.542-44.771,196.542-44.771" transform="translate(-140.024 312.532)" fill="none" stroke="#88b51f" stroke-width="1"/>
    <path id="Path_17739-4" data-name="Path 17739" d="M2608.024-5157.614s11.383-54.109,146.458-41.968,196.542-44.771,196.542-44.771" transform="translate(-140.024 322.667)" fill="none" stroke="#88b51f" stroke-width="1"/>
    <path id="Path_17739-5" data-name="Path 17739" d="M2608.024-5157.614s11.383-54.109,146.458-41.968,196.542-44.771,196.542-44.771" transform="translate(-140.024 332.801)" fill="none" stroke="#88b51f" stroke-width="1"/>
    <path id="Path_17739-6" data-name="Path 17739" d="M2608.024-5157.614s11.383-54.109,146.458-41.968,196.542-44.771,196.542-44.771" transform="translate(-140.024 342.936)" fill="none" stroke="#88b51f" stroke-width="1"/>
    <path id="Path_17739-7" data-name="Path 17739" d="M2608.024-5157.614s11.383-54.109,146.458-41.968,196.542-44.771,196.542-44.771" transform="translate(-140.024 353.07)" fill="none" stroke="#88b51f" stroke-width="1"/>
    <path id="Path_17739-8" data-name="Path 17739" d="M2608.024-5157.614s11.383-54.109,146.458-41.968,196.542-44.771,196.542-44.771" transform="translate(-140.024 363.205)" fill="none" stroke="#88b51f" stroke-width="1"/>
    <path id="Path_17739-9" data-name="Path 17739" d="M2608.024-5157.614s11.383-54.109,146.458-41.968,196.542-44.771,196.542-44.771" transform="translate(-140.024 373.339)" fill="none" stroke="#88b51f" stroke-width="1"/>
  </g>
</svg>
